<?xml version="1.0" standalone="no"?>
<!DOCTYPE svg PUBLIC "-//W3C//DTD SVG 20010904//EN"
 "http://www.w3.org/TR/2001/REC-SVG-20010904/DTD/svg10.dtd">
<svg version="1.0" xmlns="http://www.w3.org/2000/svg"
 width="512.000000pt" height="512.000000pt" viewBox="0 0 512.000000 512.000000"
 preserveAspectRatio="xMidYMid meet">

<g transform="translate(0.000000,512.000000) scale(0.100000,-0.100000)"
fill="#000000" stroke="none">
<path d="M1090 4790 l0 -80 418 -2 417 -3 2 -184 c2 -123 -1 -189 -8 -198 -8
-9 -8 -13 0 -13 7 0 11 -26 11 -75 l0 -75 90 0 90 0 0 61 c0 33 5 69 10 79 7
13 7 21 0 25 -5 3 -10 42 -10 86 0 44 5 89 10 99 7 13 7 21 0 25 -14 9 -13
148 2 163 17 17 859 17 876 0 15 -15 16 -154 2 -163 -7 -4 -7 -12 0 -25 13
-24 13 -177 0 -185 -7 -4 -7 -12 0 -25 5 -10 10 -46 10 -79 l0 -61 90 0 90 0
1 78 c0 42 1 165 2 272 l2 195 418 3 417 2 0 80 0 80 -1470 0 -1470 0 0 -80z"/>
<path d="M1090 3875 l0 -85 113 0 c61 -1 243 -2 402 -3 l290 -2 3 -307 2 -308
155 0 155 0 0 -65 0 -65 -155 0 -155 0 0 -50 0 -50 335 0 335 0 2 423 3 422
140 0 140 0 3 -62 3 -63 139 0 139 0 3 63 3 62 285 2 c157 1 356 2 443 3 l157
0 0 85 0 85 -1470 0 -1470 0 0 -85z m1005 -400 l0 -210 -34 -3 c-20 -2 -37 2
-42 10 -10 15 -12 378 -3 403 5 12 17 15 43 13 l36 -3 0 -210z"/>
<path d="M2860 3345 l0 -165 140 0 140 0 0 165 0 165 -140 0 -140 0 0 -165z"/>
<path d="M2860 2985 l0 -45 140 0 140 0 0 45 0 45 -140 0 -140 0 0 -45z"/>
<path d="M1090 2645 l0 -95 113 0 c61 -1 243 -2 402 -3 l290 -2 3 -262 2 -263
155 0 155 0 2 263 3 262 175 0 175 0 3 -262 2 -263 145 0 145 0 0 -75 0 -75
-145 0 -145 0 0 -75 0 -75 285 0 285 0 2 413 3 412 285 2 c157 1 356 2 443 3
l157 0 0 95 0 95 -1470 0 -1470 0 0 -95z"/>
<path d="M1900 1795 l0 -75 155 0 155 0 0 75 0 75 -155 0 -155 0 0 -75z"/>
<path d="M1090 1415 l0 -105 113 -1 c61 0 180 -1 262 -2 l150 -2 3 -97 3 -98
139 0 140 0 0 -65 0 -65 -140 0 -140 0 0 -240 0 -240 295 0 295 0 2 403 3 402
320 0 320 0 3 -402 2 -403 140 0 140 0 2 403 3 402 280 0 280 0 3 -82 3 -83
159 0 160 0 0 190 0 190 -1470 0 -1470 0 0 -105z m1955 -510 l0 -310 -45 0
-45 0 -3 300 c-1 165 0 306 3 313 3 9 19 12 47 10 l43 -3 0 -310z"/>
<path d="M3710 750 l0 -250 160 0 160 0 0 250 0 250 -160 0 -160 0 0 -250z"/>
</g>
</svg>
